<svg width="100" height="100" viewBox="0 0 100 100" fill="none" xmlns="http://www.w3.org/2000/svg">
<rect width="100" height="100" rx="11" fill="white"/>
<path d="M27 45.679C27 34.2583 36.2583 25 47.679 25V25V53.5654C47.679 64.9861 38.4207 74.2444 27 74.2444V74.2444V45.679Z" fill="#4A3AFF"/>
<path d="M50.6787 36.2368C50.6787 30.0309 55.7096 25 61.9155 25V25C68.1214 25 73.1523 30.0309 73.1523 36.2368V36.8855C73.1523 43.0914 68.1214 48.1223 61.9155 48.1223V48.1223C55.7096 48.1223 50.6787 43.0914 50.6787 36.8855V36.2368Z" fill="#4CBFFF"/>
<path d="M50.6787 62.3588C50.6787 56.1529 55.7096 51.1221 61.9155 51.1221V51.1221C68.1214 51.1221 73.1523 56.1529 73.1523 62.3588V63.0076C73.1523 69.2135 68.1214 74.2444 61.9155 74.2444V74.2444C55.7096 74.2444 50.6787 69.2135 50.6787 63.0076V62.3588Z" fill="#9328FF"/>
</svg>
