<svg width="29" height="37" viewBox="0 0 29 37" fill="none" xmlns="http://www.w3.org/2000/svg">
<path d="M7.9707 36.5276C11.8347 36.5276 14.9707 33.8062 14.9707 30.453V24.3784H7.9707C4.1067 24.3784 0.970703 27.0998 0.970703 30.453C0.970703 33.8062 4.1067 36.5276 7.9707 36.5276Z" fill="#0ACF83"/>
<path d="M0.970703 18.3038C0.970703 14.9507 4.1067 12.2292 7.9707 12.2292H14.9707V24.3784H7.9707C4.1067 24.3784 0.970703 21.657 0.970703 18.3038Z" fill="#A259FF"/>
<path d="M0.970703 6.15466C0.970703 2.80149 4.1067 0.0800781 7.9707 0.0800781H14.9707V12.2292H7.9707C4.1067 12.2292 0.970703 9.50783 0.970703 6.15466Z" fill="#F24E1E"/>
<path d="M14.9707 0.0800781H21.9707C25.8347 0.0800781 28.9707 2.80149 28.9707 6.15466C28.9707 9.50783 25.8347 12.2292 21.9707 12.2292H14.9707V0.0800781Z" fill="#FF7262"/>
<path d="M28.9707 18.3038C28.9707 21.657 25.8347 24.3784 21.9707 24.3784C18.1067 24.3784 14.9707 21.657 14.9707 18.3038C14.9707 14.9507 18.1067 12.2292 21.9707 12.2292C25.8347 12.2292 28.9707 14.9507 28.9707 18.3038Z" fill="#1ABCFE"/>
</svg>
