<svg width="24" height="24" viewBox="0 0 24 24" fill="none" xmlns="http://www.w3.org/2000/svg">
<rect x="0.807861" y="0.154785" width="23" height="23" rx="4" fill="url(#paint0_linear_308_20)"/>
<path d="M8.09029 5.96142C8.11947 5.88904 8.16894 5.82715 8.23244 5.78361C8.29594 5.74006 8.37061 5.71681 8.44701 5.7168H16.1682C16.2706 5.7168 16.3688 5.7585 16.4412 5.83273C16.5136 5.90697 16.5542 6.00765 16.5542 6.11263V10.071C16.5542 10.176 16.5136 10.2766 16.4412 10.3509C16.3688 10.4251 16.2706 10.4668 16.1682 10.4668H13.2395L16.4415 13.7491C16.4956 13.8044 16.5325 13.875 16.5475 13.9519C16.5624 14.0288 16.5548 14.1085 16.5255 14.1809C16.4962 14.2533 16.4466 14.3152 16.383 14.3587C16.3194 14.4021 16.2446 14.4253 16.1682 14.4251H12.6937V17.196C12.6938 17.2744 12.6712 17.351 12.6288 17.4163C12.5864 17.4815 12.5261 17.5323 12.4554 17.5624C12.3848 17.5924 12.3071 17.6002 12.2321 17.5849C12.1571 17.5696 12.0883 17.5317 12.0343 17.4762L8.17368 13.5179C8.13785 13.4811 8.10945 13.4374 8.09011 13.3893C8.07077 13.3412 8.06086 13.2897 8.06095 13.2376V10.071C8.06095 9.96599 8.10162 9.86531 8.17402 9.79108C8.24642 9.71684 8.34462 9.67514 8.44701 9.67514H11.3756L8.17368 6.39288C8.11972 6.33748 8.083 6.26692 8.06816 6.19012C8.05331 6.11332 8.06101 6.03373 8.09029 5.96142Z" fill="white"/>
<defs>
<linearGradient id="paint0_linear_308_20" x1="12.3079" y1="0.154785" x2="12.3079" y2="23.1548" gradientUnits="userSpaceOnUse">
<stop stop-color="#02C8FE"/>
<stop offset="1" stop-color="#5040FF"/>
</linearGradient>
</defs>
</svg>
