<svg width="21" height="21" viewBox="0 0 21 21" fill="none" xmlns="http://www.w3.org/2000/svg">
<path d="M15.5976 3.67472C15.3602 3.67472 15.1282 3.7451 14.9309 3.87696C14.7335 4.00882 14.5797 4.19623 14.4889 4.4155C14.3981 4.63477 14.3743 4.87605 14.4206 5.10883C14.4669 5.34161 14.5812 5.55543 14.749 5.72325C14.9169 5.89107 15.1307 6.00536 15.3635 6.05166C15.5962 6.09797 15.8375 6.0742 16.0568 5.98338C16.2761 5.89255 16.4635 5.73875 16.5953 5.54141C16.7272 5.34407 16.7976 5.11206 16.7976 4.87472C16.7976 4.55646 16.6711 4.25124 16.4461 4.02619C16.2211 3.80115 15.9158 3.67472 15.5976 3.67472ZM20.1976 6.09472C20.1781 5.26502 20.0227 4.44412 19.7376 3.66472C19.4833 2.99785 19.0876 2.394 18.5776 1.89472C18.0824 1.38215 17.4771 0.988898 16.8076 0.744722C16.0302 0.450882 15.2084 0.291932 14.3776 0.274722C13.3176 0.214722 12.9776 0.214722 10.2576 0.214722C7.53757 0.214722 7.19757 0.214722 6.13757 0.274722C5.30672 0.291932 4.48491 0.450882 3.70757 0.744722C3.03924 0.99137 2.4345 1.38428 1.93757 1.89472C1.42499 2.3899 1.03174 2.99516 0.787568 3.66472C0.493729 4.44206 0.334778 5.26387 0.317568 6.09472C0.257568 7.15472 0.257568 7.49472 0.257568 10.2147C0.257568 12.9347 0.257568 13.2747 0.317568 14.3347C0.334778 15.1656 0.493729 15.9874 0.787568 16.7647C1.03174 17.4343 1.42499 18.0395 1.93757 18.5347C2.4345 19.0452 3.03924 19.4381 3.70757 19.6847C4.48491 19.9786 5.30672 20.1375 6.13757 20.1547C7.19757 20.2147 7.53757 20.2147 10.2576 20.2147C12.9776 20.2147 13.3176 20.2147 14.3776 20.1547C15.2084 20.1375 16.0302 19.9786 16.8076 19.6847C17.4771 19.4405 18.0824 19.0473 18.5776 18.5347C19.0898 18.0373 19.4859 17.4329 19.7376 16.7647C20.0227 15.9853 20.1781 15.1644 20.1976 14.3347C20.1976 13.2747 20.2576 12.9347 20.2576 10.2147C20.2576 7.49472 20.2576 7.15472 20.1976 6.09472ZM18.3976 14.2147C18.3903 14.8495 18.2753 15.4784 18.0576 16.0747C17.8979 16.5099 17.6414 16.9031 17.3076 17.2247C16.9832 17.5552 16.5908 17.8112 16.1576 17.9747C15.5613 18.1925 14.9323 18.3074 14.2976 18.3147C13.2976 18.3647 12.9276 18.3747 10.2976 18.3747C7.66757 18.3747 7.29757 18.3747 6.29757 18.3147C5.63846 18.3271 4.98216 18.2256 4.35757 18.0147C3.94335 17.8428 3.56892 17.5875 3.25757 17.2647C2.92566 16.9435 2.67241 16.5499 2.51757 16.1147C2.27342 15.5099 2.13801 14.8667 2.11757 14.2147C2.11757 13.2147 2.05757 12.8447 2.05757 10.2147C2.05757 7.58472 2.05757 7.21472 2.11757 6.21472C2.12205 5.56578 2.24052 4.92267 2.46757 4.31472C2.64362 3.89263 2.91383 3.51638 3.25757 3.21472C3.56138 2.87089 3.93686 2.59782 4.35757 2.41472C4.96712 2.19477 5.60957 2.0798 6.25757 2.07472C7.25757 2.07472 7.62757 2.01472 10.2576 2.01472C12.8876 2.01472 13.2576 2.01472 14.2576 2.07472C14.8923 2.082 15.5213 2.19697 16.1176 2.41472C16.572 2.58337 16.9799 2.85757 17.3076 3.21472C17.6353 3.5219 17.8913 3.89745 18.0576 4.31472C18.2798 4.92366 18.3949 5.5665 18.3976 6.21472C18.4476 7.21472 18.4576 7.58472 18.4576 10.2147C18.4576 12.8447 18.4476 13.2147 18.3976 14.2147ZM10.2576 5.08472C9.24338 5.0867 8.25253 5.38925 7.41022 5.95414C6.56792 6.51903 5.91195 7.32092 5.5252 8.25848C5.13846 9.19603 5.03829 10.2272 5.23736 11.2217C5.43643 12.2161 5.9258 13.1293 6.64364 13.8457C7.36148 14.5621 8.27558 15.0497 9.27043 15.2469C10.2653 15.444 11.2962 15.3418 12.233 14.9533C13.1698 14.5647 13.9704 13.9072 14.5337 13.0638C15.0969 12.2203 15.3976 11.2289 15.3976 10.2147C15.3989 9.53983 15.2668 8.87133 15.0088 8.24768C14.7508 7.62403 14.3721 7.05753 13.8944 6.58077C13.4167 6.10401 12.8495 5.7264 12.2254 5.46965C11.6012 5.2129 10.9325 5.08208 10.2576 5.08472ZM10.2576 13.5447C9.59896 13.5447 8.95514 13.3494 8.40752 12.9835C7.8599 12.6176 7.43309 12.0975 7.18105 11.4891C6.92901 10.8806 6.86306 10.211 6.99155 9.56507C7.12004 8.91911 7.43719 8.32576 7.9029 7.86006C8.36861 7.39435 8.96196 7.0772 9.60792 6.94871C10.2539 6.82022 10.9234 6.88616 11.5319 7.1382C12.1404 7.39024 12.6605 7.81706 13.0264 8.36467C13.3923 8.91229 13.5876 9.55611 13.5876 10.2147C13.5876 10.652 13.5014 11.085 13.3341 11.4891C13.1667 11.8931 12.9215 12.2602 12.6122 12.5694C12.303 12.8786 11.9359 13.1239 11.5319 13.2912C11.1279 13.4586 10.6949 13.5447 10.2576 13.5447Z" fill="#494F52"/>
</svg>
