<svg width="17" height="21" viewBox="0 0 17 21" fill="none" xmlns="http://www.w3.org/2000/svg">
<path d="M9.91527 0.215169C9.76975 0.220179 9.62662 0.255009 9.49412 0.317652C9.36163 0.380294 9.24239 0.469512 9.14328 0.580165L4.80054 5.40344L1.70455 8.84174C1.25364 9.33977 0.921077 9.94015 0.733333 10.595C0.693099 10.7357 0.659586 10.8784 0.632918 11.0225C0.512551 11.6747 0.529541 12.3461 0.682724 12.9909C0.750811 13.2817 0.844663 13.5654 0.963082 13.8383C1.20866 14.4054 1.55505 14.9193 1.9841 15.3533L5.4199 18.8475L5.45123 18.8791C7.25709 20.6833 10.1523 20.6566 11.9284 18.8175L13.8531 16.8241C14.2869 16.3741 14.2869 15.6458 13.8556 15.195C13.7529 15.0879 13.6309 15.0029 13.4965 14.9448C13.3621 14.8867 13.218 14.8567 13.0724 14.8565C12.9268 14.8563 12.7826 14.8858 12.6481 14.9435C12.5135 15.0011 12.3913 15.0858 12.2883 15.1925L10.3635 17.1858C9.91476 17.6453 9.31123 17.9055 8.68073 17.9114C8.05023 17.9173 7.44227 17.6684 6.98557 17.2175L6.9695 17.2016L3.53451 13.7075C3.01074 13.1742 2.75368 12.4834 2.77296 11.8217C2.77678 11.675 2.79454 11.529 2.82598 11.3859C2.90672 11.0228 3.07823 10.6883 3.32323 10.4159L6.41842 6.97676C7.26834 6.03177 8.99226 5.91844 9.97713 6.74509L12.7896 9.10423C13.2659 9.50423 13.9632 9.42673 14.348 8.93173C14.5324 8.69395 14.6185 8.39001 14.5873 8.08652C14.5562 7.78303 14.4103 7.50472 14.1817 7.31259L11.3701 4.95345C10.7274 4.41429 9.95142 4.08262 9.14168 3.95179L10.7604 2.15348C10.9096 1.98705 11.0081 1.7786 11.0434 1.5543C11.0788 1.33 11.0495 1.09986 10.9592 0.89277C10.869 0.685683 10.7217 0.510887 10.536 0.390332C10.3502 0.269777 10.1343 0.208839 9.91527 0.215169ZM7.61296 10.8942C7.46724 10.8942 7.32296 10.924 7.18835 10.9819C7.05375 11.0398 6.93147 11.1247 6.82851 11.2316C6.72554 11.3386 6.64392 11.4656 6.5883 11.6053C6.53269 11.745 6.50417 11.8947 6.50438 12.0459C6.50417 12.197 6.53269 12.3467 6.5883 12.4865C6.64392 12.6262 6.72554 12.7531 6.82851 12.8601C6.93147 12.9671 7.05375 13.0519 7.18835 13.1098C7.32296 13.1677 7.46724 13.1975 7.61296 13.1975H15.7851C15.9308 13.1975 16.0751 13.1677 16.2097 13.1098C16.3443 13.0519 16.4666 12.9671 16.5696 12.8601C16.6725 12.7531 16.7542 12.6262 16.8098 12.4865C16.8654 12.3467 16.8939 12.197 16.8937 12.0459C16.8939 11.8947 16.8654 11.745 16.8098 11.6053C16.7542 11.4656 16.6725 11.3386 16.5696 11.2316C16.4666 11.1247 16.3443 11.0398 16.2097 10.9819C16.0751 10.924 15.9308 10.8942 15.7851 10.8942H7.61296Z" fill="#494F52"/>
</svg>
