<svg width="21" height="21" viewBox="0 0 21 21" fill="none" xmlns="http://www.w3.org/2000/svg">
<path d="M17.7929 0.214722C18.3823 0.214722 18.9475 0.448848 19.3643 0.865595C19.781 1.28234 20.0151 1.84757 20.0151 2.43694V17.9925C20.0151 18.5819 19.781 19.1471 19.3643 19.5638C18.9475 19.9806 18.3823 20.2147 17.7929 20.2147H2.23736C1.64799 20.2147 1.08276 19.9806 0.66601 19.5638C0.249263 19.1471 0.0151367 18.5819 0.0151367 17.9925V2.43694C0.0151367 1.84757 0.249263 1.28234 0.66601 0.865595C1.08276 0.448848 1.64799 0.214722 2.23736 0.214722H17.7929ZM17.2374 17.4369V11.5481C17.2374 10.5874 16.8557 9.66606 16.1764 8.98676C15.4971 8.30746 14.5758 7.92583 13.6151 7.92583C12.6707 7.92583 11.5707 8.50361 11.0374 9.37028V8.13694H7.93736V17.4369H11.0374V11.9592C11.0374 11.1036 11.7262 10.4036 12.5818 10.4036C12.9944 10.4036 13.39 10.5675 13.6817 10.8592C13.9735 11.1509 14.1374 11.5466 14.1374 11.9592V17.4369H17.2374ZM4.32625 6.3925C4.82132 6.3925 5.29611 6.19583 5.64618 5.84577C5.99625 5.4957 6.19292 5.0209 6.19292 4.52583C6.19292 3.4925 5.35958 2.64806 4.32625 2.64806C3.82823 2.64806 3.35061 2.84589 2.99846 3.19804C2.64631 3.5502 2.44847 4.02782 2.44847 4.52583C2.44847 5.55917 3.29291 6.3925 4.32625 6.3925ZM5.87069 17.4369V8.13694H2.79291V17.4369H5.87069Z" fill="#494F52"/>
</svg>
