<svg width="16" height="15" viewBox="0 0 16 15" fill="none" xmlns="http://www.w3.org/2000/svg">
<path d="M5.07471 4.5L5.47971 4.207C5.41776 4.12143 5.33029 4.05768 5.22986 4.0249C5.12944 3.99212 5.02121 3.99198 4.9207 4.02452C4.82019 4.05706 4.73257 4.1206 4.67042 4.20602C4.60826 4.29144 4.57475 4.39436 4.57471 4.5H5.07471ZM8.07471 14C6.3508 14 4.6975 13.3152 3.47851 12.0962C2.25953 10.8772 1.57471 9.22391 1.57471 7.5H0.574707C0.574707 9.48912 1.36488 11.3968 2.77141 12.8033C4.17793 14.2098 6.08558 15 8.07471 15V14ZM14.5747 7.5C14.5747 8.35359 14.4066 9.19883 14.0799 9.98744C13.7533 10.7761 13.2745 11.4926 12.6709 12.0962C12.0673 12.6998 11.3508 13.1786 10.5621 13.5052C9.77353 13.8319 8.9283 14 8.07471 14V15C10.0638 15 11.9715 14.2098 13.378 12.8033C14.7845 11.3968 15.5747 9.48912 15.5747 7.5H14.5747ZM8.07471 1C8.9283 1 9.77353 1.16813 10.5621 1.49478C11.3508 1.82144 12.0673 2.30023 12.6709 2.90381C13.2745 3.50739 13.7533 4.22394 14.0799 5.01256C14.4066 5.80117 14.5747 6.64641 14.5747 7.5H15.5747C15.5747 5.51088 14.7845 3.60322 13.378 2.1967C11.9715 0.790176 10.0638 0 8.07471 0V1ZM8.07471 0C6.08558 0 4.17793 0.790176 2.77141 2.1967C1.36488 3.60322 0.574707 5.51088 0.574707 7.5H1.57471C1.57471 5.77609 2.25953 4.12279 3.47851 2.90381C4.6975 1.68482 6.3508 1 8.07471 1V0ZM5.57471 12V4.5H4.57471V12H5.57471ZM4.66971 4.793L11.1697 13.793L11.9797 13.207L5.47971 4.207L4.66971 4.793ZM10.5747 4V10H11.5747V4H10.5747Z" fill="white"/>
</svg>
