<svg width="23" height="25" viewBox="0 0 23 25" fill="white" xmlns="http://www.w3.org/2000/svg">
<path d="M11.9707 24.3316C11.6287 24.3316 11.3107 24.2426 11.0137 24.0886L7.9847 22.3506C7.5297 22.1086 7.7577 22.0206 7.8947 21.9766C8.5087 21.7786 8.6227 21.7346 9.2607 21.3816C9.3287 21.3376 9.4207 21.3596 9.4887 21.4036L11.8117 22.7466C11.9017 22.7906 12.0167 22.7906 12.0847 22.7466L21.1717 17.6626C21.2617 17.6186 21.3077 17.5306 21.3077 17.4206V7.2746C21.3077 7.1646 21.2627 7.0766 21.1717 7.0326L12.0847 1.9716C11.9937 1.9276 11.8797 1.9276 11.8117 1.9716L2.7247 7.0326C2.6337 7.0766 2.5877 7.1866 2.5877 7.2746V17.4206C2.5877 17.5086 2.6337 17.6186 2.7247 17.6626L5.2067 19.0496C6.5507 19.7096 7.3927 18.9396 7.3927 18.1696V8.1556C7.3927 8.0236 7.5067 7.8916 7.6667 7.8916H8.8277C8.9647 7.8916 9.1007 8.0016 9.1007 8.1556V18.1686C9.1007 19.9076 8.1217 20.9196 6.4137 20.9196C5.8897 20.9196 5.4797 20.9196 4.3187 20.3696L1.9277 19.0496C1.63959 18.8912 1.39899 18.6587 1.23075 18.3762C1.06251 18.0937 0.972741 17.7714 0.970703 17.4426V7.2966C0.970703 6.6366 1.3347 6.0206 1.9277 5.6906L11.0147 0.605597C11.3105 0.453883 11.6382 0.374756 11.9707 0.374756C12.3032 0.374756 12.6309 0.453883 12.9267 0.605597L22.0147 5.6896C22.6067 6.0196 22.9707 6.6356 22.9707 7.2956V17.4416C22.9707 18.1016 22.6067 18.7176 22.0147 19.0486L12.9267 24.1316C12.625 24.2624 12.2996 24.3298 11.9707 24.3296V24.3316ZM14.7717 17.3546C10.7867 17.3546 9.9667 15.5946 9.9667 14.0976C9.9667 13.9656 10.0807 13.8336 10.2397 13.8336H11.4237C11.5607 13.8336 11.6737 13.9216 11.6737 14.0536C11.8567 15.2196 12.3807 15.7916 14.7947 15.7916C16.7077 15.7916 17.5277 15.3736 17.5277 14.3836C17.5277 13.8116 17.2997 13.3936 14.3167 13.1076C11.8337 12.8646 10.2857 12.3376 10.2857 10.4226C10.2857 8.6396 11.8337 7.5826 14.4307 7.5826C17.3457 7.5826 18.7807 8.5516 18.9627 10.6646C18.9607 10.7361 18.9366 10.8053 18.8937 10.8626C18.8487 10.9066 18.7807 10.9506 18.7117 10.9506H17.5277C17.4702 10.9492 17.4147 10.9291 17.3696 10.8934C17.3245 10.8577 17.2922 10.8083 17.2777 10.7526C17.0037 9.5426 16.2977 9.1456 14.4307 9.1456C12.3347 9.1456 12.0847 9.8496 12.0847 10.3776C12.0847 11.0166 12.3807 11.2146 15.2047 11.5666C18.0057 11.9186 19.3267 12.4246 19.3267 14.3166C19.3037 16.2546 17.6647 17.3546 14.7717 17.3546Z" fill="white"/>
</svg>
