<svg width="25" height="29" viewBox="0 0 25 29" fill="none" xmlns="http://www.w3.org/2000/svg">
<path d="M12.9036 16.7619C12.4226 16.9829 11.8956 17.2709 10.8406 17.8499C10.4406 18.0749 10.0226 18.2999 9.63355 18.5119C9.60655 18.4849 9.57855 18.4509 9.55155 18.4229C7.46455 16.1929 3.60455 14.6179 3.76855 11.6229C3.82955 10.5319 4.20455 7.66794 11.1816 4.18994C16.9236 1.35994 21.4925 2.14394 22.2815 3.88294C23.4156 6.36194 19.8326 10.9749 13.9026 11.6439C13.2462 11.7771 12.5684 11.761 11.9191 11.5969C11.2699 11.4328 10.6658 11.1249 10.1516 10.6959C9.83755 10.3549 9.79055 10.3349 9.67455 10.4029C9.48355 10.5029 9.60655 10.8119 9.67455 10.9889C9.90075 11.3985 10.2068 11.7585 10.5745 12.0478C10.9422 12.337 11.3642 12.5496 11.8156 12.6729C14.1492 13.1773 16.5822 12.9363 18.7715 11.9839C22.3655 10.5929 25.1716 6.72594 24.3496 3.48394C23.5245 0.196937 18.0686 -0.887063 12.9066 0.946937C9.67383 2.03633 6.68708 3.75125 4.11655 5.99394C1.27255 8.65394 0.82255 10.9659 1.00655 11.9339C1.66855 15.3709 6.40655 17.6079 8.30655 19.2649C8.20655 19.3199 8.12255 19.3649 8.04755 19.4079C7.09955 19.8789 3.48555 21.7679 2.58455 23.7659C1.56155 26.0299 2.74855 27.6529 3.53255 27.8709C4.71404 28.1539 5.95441 28.0609 7.08047 27.6048C8.20652 27.1487 9.16202 26.3524 9.81355 25.3269C10.3668 24.4766 10.7066 23.5052 10.8039 22.4954C10.9012 21.4856 10.7532 20.4673 10.3726 19.5269C10.5972 19.3478 10.8367 19.1882 11.0886 19.0499C11.5726 18.7639 12.0336 18.4819 12.4426 18.2639C13.8429 17.608 15.3712 17.2702 16.9176 17.2749C20.1635 17.6569 20.8045 19.6819 20.6815 20.5349C20.624 20.8376 20.5023 21.1244 20.3246 21.376C20.147 21.6277 19.9175 21.8384 19.6516 21.9939C19.4265 22.1369 19.3515 22.1849 19.3715 22.2869C19.3986 22.4369 19.5075 22.4299 19.6985 22.4029C20.1862 22.2488 20.6159 21.9508 20.9311 21.5479C21.2463 21.1451 21.4322 20.6564 21.4646 20.1459C21.5646 18.1459 19.6576 15.9519 16.2816 15.9719C15.2707 15.9737 14.2699 16.1731 13.3356 16.5589C13.1856 16.6209 13.0399 16.6876 12.8986 16.7589L12.9036 16.7619ZM8.07855 24.6009C7.00055 25.7739 5.50055 26.2169 4.85255 25.8419C4.15255 25.4419 4.42955 23.7069 5.75255 22.4659C6.53611 21.7599 7.38302 21.1276 8.28255 20.5769C8.43955 20.4769 8.67155 20.3449 8.95055 20.1769L9.02555 20.1359L9.18955 20.0359C9.42551 20.827 9.44698 21.6666 9.25176 22.4688C9.05654 23.2709 8.65165 24.0067 8.07855 24.6009Z" fill="#CD6799"/>
</svg>
