<svg width="35" height="23" viewBox="0 0 35 23" fill="none" xmlns="http://www.w3.org/2000/svg">
<path d="M17.5364 0.937256C13.0795 0.937256 10.2939 3.37458 9.17969 8.24907C10.851 5.81175 12.8009 4.89778 15.0294 5.50714C16.3008 5.85474 17.2096 6.86368 18.2155 7.98031C19.8542 9.79955 21.7506 11.905 25.8931 11.905C30.3499 11.905 33.1356 9.46766 34.2498 4.59316C32.5784 7.03049 30.6286 7.94446 28.4001 7.3351C27.1287 6.9875 26.2199 5.97855 25.214 4.86193C23.5753 3.04269 21.6788 0.937256 17.5364 0.937256ZM9.17969 11.905C4.72283 11.905 1.93718 14.3423 0.822998 19.2168C2.49434 16.7795 4.44419 15.8655 6.67268 16.4749C7.94407 16.8225 8.85286 17.8314 9.8588 18.948C11.4975 20.7673 13.3939 22.8727 17.5364 22.8727C21.9932 22.8727 24.7789 20.4354 25.8931 15.5609C24.2217 17.9982 22.2719 18.9122 20.0434 18.3028C18.772 17.9552 17.8632 16.9463 16.8573 15.8297C15.2186 14.0104 13.3221 11.905 9.17969 11.905Z" fill="url(#paint0_linear_308_7)"/>
<defs>
<linearGradient id="paint0_linear_308_7" x1="-92.0365" y1="702.872" x2="2918.09" y2="2289.76" gradientUnits="userSpaceOnUse">
<stop stop-color="#2298BD"/>
<stop offset="1" stop-color="#0ED7B5"/>
</linearGradient>
</defs>
</svg>
