<svg width="22" height="18" viewBox="0 0 22 18" fill="none" xmlns="http://www.w3.org/2000/svg">
<path d="M21.5416 2.21472C20.7716 2.56472 19.9416 2.79472 19.0816 2.90472C19.9616 2.37472 20.6416 1.53472 20.9616 0.524722C20.1316 1.02472 19.2116 1.37472 18.2416 1.57472C17.4516 0.714722 16.3416 0.214722 15.0816 0.214722C12.7316 0.214722 10.8116 2.13472 10.8116 4.50472C10.8116 4.84472 10.8516 5.17472 10.9216 5.48472C7.36158 5.30472 4.19158 3.59472 2.08158 1.00472C1.71158 1.63472 1.50158 2.37472 1.50158 3.15472C1.50158 4.64472 2.25158 5.96472 3.41158 6.71472C2.70158 6.71472 2.04158 6.51472 1.46158 6.21472V6.24472C1.46158 8.32472 2.94158 10.0647 4.90158 10.4547C4.27231 10.6269 3.61168 10.6509 2.97158 10.5247C3.24319 11.3772 3.77512 12.1231 4.4926 12.6577C5.21008 13.1922 6.07703 13.4884 6.97158 13.5047C5.45521 14.7052 3.57558 15.354 1.64158 15.3447C1.30158 15.3447 0.961582 15.3247 0.621582 15.2847C2.52158 16.5047 4.78158 17.2147 7.20158 17.2147C15.0816 17.2147 19.4116 10.6747 19.4116 5.00472C19.4116 4.81472 19.4116 4.63472 19.4016 4.44472C20.2416 3.84472 20.9616 3.08472 21.5416 2.21472Z" fill="#494F52"/>
</svg>
