<svg width="40" height="41" viewBox="0 0 40 41" fill="none" xmlns="http://www.w3.org/2000/svg">
<path d="M37.7471 20.4028C37.7484 18.666 37.4939 16.9385 36.9918 15.2759L36.9703 15.2048H36.8961H28.6H28.4821L28.5013 15.3211C29.0591 18.686 29.0591 22.1197 28.5013 25.4845L28.4821 25.6009H28.6H36.8961H36.9703L36.9918 25.5298C37.4939 23.8671 37.7484 22.1396 37.7471 20.4028ZM37.7471 20.4028C37.7471 20.4029 37.7471 20.4029 37.7471 20.4029L37.6471 20.4028L37.7471 20.4028C37.7471 20.4028 37.7471 20.4028 37.7471 20.4028ZM20 38.1499C20.063 38.1502 20.1252 38.137 20.1827 38.1113C20.24 38.0857 20.2912 38.0482 20.3329 38.0014C22.8703 35.2686 24.7321 31.7619 25.7828 27.8799L25.8169 27.7538H25.6863H14.3137H14.1831L14.2172 27.8799C15.2679 31.7619 17.1297 35.2686 19.6671 38.0014C19.7088 38.0482 19.76 38.0857 19.8173 38.1113C19.8748 38.137 19.9371 38.1502 20 38.1499ZM20 38.1499C19.9998 38.1499 19.9996 38.1499 19.9995 38.1499L20 38.0499L20.0006 38.1499C20.0004 38.1499 20.0002 38.1499 20 38.1499ZM2.25295 20.4028C2.25163 22.1396 2.50611 23.8671 3.0082 25.5298L3.02967 25.6009H3.10393H11.4H11.5179L11.4987 25.4845C10.9409 22.1197 10.9409 18.686 11.4987 15.3211L11.5179 15.2048H11.4H3.10393H3.02967L3.0082 15.2759C2.50611 16.9385 2.25163 18.666 2.25295 20.4028ZM2.25295 20.4028C2.25295 20.4028 2.25295 20.4028 2.25295 20.4028L2.35295 20.4028L2.25295 20.4029C2.25295 20.4029 2.25295 20.4029 2.25295 20.4028ZM11.4 25.5009H11.2986C11.2995 25.5063 11.3004 25.5118 11.3014 25.5172L11.4 25.5009ZM11.4 25.5009V25.4009H11.3836C11.389 25.4342 11.3945 25.4675 11.4 25.5009ZM11.4 15.3048V15.4048H11.3836C11.389 15.3714 11.3945 15.3381 11.4 15.3048ZM11.4 15.3048L11.3014 15.2884C11.3004 15.2939 11.2995 15.2993 11.2986 15.3048H11.4ZM20.0006 2.65577C19.9374 2.65543 19.8749 2.66858 19.8173 2.69434C19.76 2.71994 19.7088 2.75742 19.6671 2.80428C17.1297 5.537 15.2679 9.04375 14.2172 12.9257L14.1831 13.0518H14.3137H25.6863H25.8169L20.2588 2.87146L20.3337 2.80517C20.3334 2.80488 20.3332 2.80458 20.3329 2.80428C20.2912 2.75742 20.24 2.71995 20.1827 2.69434C20.1254 2.66873 20.0633 2.65558 20.0006 2.65577ZM20.0006 2.65577L20 2.75577L19.9995 2.65577C19.9998 2.65577 20.0002 2.65578 20.0006 2.65577ZM35.9941 13.0518H36.1513L36.0847 12.9095C34.909 10.3962 33.1623 8.19236 30.9839 6.47375C28.8055 4.75514 26.2557 3.56929 23.5378 3.01076L23.2817 2.95814L23.4373 3.16823C25.6063 6.0971 27.1643 9.43222 28.0185 12.9753L28.0369 13.0518H28.1157H35.9941ZM13.6878 25.5185L13.7026 25.6009H13.7863H26.2137H26.2974L26.3122 25.5185C26.9182 22.135 26.9182 18.6707 26.3122 15.2872L26.2974 15.2048H26.2137H13.7863H13.7026L13.6878 15.2872C13.0819 18.6707 13.0819 22.135 13.6878 25.5185ZM16.5627 3.16823L16.7183 2.95814L16.4622 3.01076C13.7443 3.56929 11.1945 4.75514 9.01612 6.47375C6.83773 8.19236 5.09104 10.3962 3.91531 12.9095L3.84871 13.0518H4.00589H11.8843H11.9631L11.9815 12.9753C12.8357 9.43222 14.3937 6.0971 16.5627 3.16823ZM4.00589 27.7538H3.84871L3.91531 27.8962C5.09104 30.4095 6.83773 32.6133 9.01612 34.3319C11.1945 36.0505 13.7443 37.2364 16.4622 37.7949L16.7183 37.8475L16.5627 37.6374C14.3937 34.7086 12.8357 31.3734 11.9815 27.8304L11.9631 27.7538H11.8843H4.00589ZM23.4373 37.6374L23.2817 37.8475L23.5378 37.7949C26.2557 37.2364 28.8055 36.0505 30.9839 34.3319C33.1623 32.6133 34.909 30.4095 36.0847 27.8962L36.1513 27.7538H35.9941H28.1157H28.0369L28.0185 27.8304C27.1643 31.3734 25.6063 34.7086 23.4373 37.6374ZM8.94416 3.85659C12.2167 1.66996 16.0641 0.502844 19.9999 0.502832C25.2759 0.509043 30.3339 2.60764 34.0645 6.33828C37.7952 10.0689 39.8938 15.127 39.9 20.4029C39.9 24.3388 38.7329 28.1862 36.5462 31.4587C34.3596 34.7312 31.2517 37.2818 27.6154 38.788C23.9792 40.2942 19.9779 40.6883 16.1177 39.9204C12.2575 39.1526 8.71165 37.2573 5.92858 34.4743C3.14552 31.6912 1.25023 28.1453 0.482382 24.2851C-0.285464 20.4249 0.108622 16.4237 1.61481 12.7874C3.12099 9.15118 5.67162 6.04323 8.94416 3.85659Z" fill="white" stroke="black" stroke-width="0.2"/>
</svg>
