<svg width="44" height="40" viewBox="0 0 44 40" fill="none" xmlns="http://www.w3.org/2000/svg">
<path d="M22 23.4445C24.1574 23.4445 25.9062 21.6956 25.9062 19.5382C25.9062 17.3808 24.1574 15.632 22 15.632C19.8426 15.632 18.0938 17.3808 18.0938 19.5382C18.0938 21.6956 19.8426 23.4445 22 23.4445Z" fill="#00D8FF"/>
<path d="M22 28.4945C17.3049 28.608 12.6216 27.9752 8.125 26.6195C6.04785 25.961 4.11052 24.9238 2.41094 23.5601C1.76239 23.0942 1.2223 22.4936 0.827722 21.7994C0.433145 21.1052 0.193421 20.3338 0.125 19.5382C0.125 16.9554 2.9625 14.4242 7.71562 12.7679C12.3324 11.3003 17.1561 10.5891 22 10.6617C26.7792 10.5949 31.5383 11.2933 36.0969 12.7304C38.0973 13.3682 39.969 14.3553 41.625 15.646C42.2625 16.0902 42.7945 16.669 43.1833 17.3417C43.5721 18.0143 43.8083 18.7642 43.875 19.5382C43.875 22.2226 40.7031 24.9429 35.5938 26.6335C31.1843 27.9451 26.5997 28.5727 22 28.4945ZM22 12.5304C17.3658 12.4685 12.7513 13.1446 8.32969 14.5335C3.95469 16.0601 1.99375 18.1476 1.99375 19.5335C1.99375 20.9835 4.10156 23.2632 8.72969 24.846C13.0314 26.1364 17.5103 26.7371 22 26.6257C26.4006 26.7044 30.7874 26.109 35.0078 24.8601C39.8125 23.2679 42 20.9851 42 19.5382C41.9212 19.0417 41.7402 18.5669 41.4686 18.1439C41.197 17.7208 40.8406 17.3587 40.4219 17.0804C38.9402 15.9353 37.2683 15.0605 35.4828 14.496C31.1219 13.1269 26.5703 12.4633 22 12.5304Z" fill="#00D8FF"/>
<path d="M13.125 39.0211C12.3961 39.0378 11.6758 38.861 11.0375 38.5086C8.8 37.218 8.025 33.4961 8.96406 28.5508C9.99945 23.8181 11.7934 19.2841 14.2766 15.1242C16.6058 10.9509 19.5878 7.17721 23.1094 3.94609C24.6612 2.53157 26.4514 1.40319 28.3969 0.613282C29.1006 0.283499 29.8682 0.112549 30.6453 0.112549C31.4224 0.112549 32.1901 0.283499 32.8938 0.613282C35.2203 1.95391 35.9906 6.06016 34.9047 11.3305C33.8373 15.8063 32.0899 20.0921 29.7234 24.0383C27.4761 28.1623 24.5881 31.9032 21.1672 35.1211C19.559 36.5911 17.6927 37.7507 15.6625 38.5414C14.8497 38.8431 13.9918 39.0052 13.125 39.0211ZM15.8953 16.0523C13.5267 20.0357 11.8073 24.3706 10.8016 28.8945C9.9375 33.4492 10.7672 36.1883 11.9734 36.8852C13.2234 37.6086 16.2578 36.9227 19.9422 33.7039C23.2079 30.621 25.9644 27.0402 28.1094 23.0945C30.3765 19.3219 32.0527 15.2244 33.0797 10.9445C34.1016 5.98359 33.2188 2.94609 31.9656 2.22422C31.496 2.04426 30.9941 1.9637 30.4917 1.98764C29.9893 2.01158 29.4973 2.13949 29.0469 2.36328C27.3151 3.07789 25.723 4.09239 24.3438 5.36016C20.9792 8.45514 18.1308 12.0679 15.9063 16.0617L15.8953 16.0523Z" fill="#00D8FF"/>
<path d="M30.8703 39.0413C28.7531 39.0413 26.0641 37.7601 23.2641 35.3523C19.6808 32.0918 16.6484 28.2732 14.2844 24.0445C11.8324 19.9419 10.0526 15.4734 9.01251 10.8085C8.56143 8.75615 8.47784 6.64006 8.76563 4.55851C8.83217 3.78634 9.0673 3.03816 9.45444 2.36674C9.84158 1.69531 10.3713 1.117 11.0063 0.672574C13.3297 -0.672738 17.2719 0.710074 21.2953 4.28195C24.64 7.44161 27.4803 11.0955 29.7172 15.1163C32.1677 19.1231 33.9661 23.4937 35.0453 28.0648C35.5158 30.1924 35.5884 32.3888 35.2594 34.5429C35.1811 35.3373 34.932 36.1053 34.529 36.7944C34.1261 37.4835 33.5789 38.0773 32.925 38.5351C32.2971 38.8831 31.588 39.0578 30.8703 39.0413ZM15.9016 23.1038C18.1694 27.1451 21.0661 30.7997 24.4828 33.9304C27.9969 36.9538 30.7844 37.6038 31.9828 36.8991C33.2328 36.1726 34.1547 33.207 33.2047 28.4085C32.1639 24.0444 30.4389 19.8724 28.0938 16.0476C25.9591 12.1993 23.248 8.70048 20.0547 5.67257C16.2672 2.31007 13.1953 1.55851 11.9438 2.28351C11.5537 2.60051 11.2336 2.99496 11.0036 3.44193C10.7737 3.8889 10.6389 4.3787 10.6078 4.88039C10.3594 6.73677 10.4403 8.62243 10.8469 10.4507C11.8474 14.9119 13.5543 19.1845 15.9031 23.107L15.9016 23.1038Z" fill="#00D8FF"/>
</svg>
